<svg width="72" height="97" viewBox="0 0 72 97" fill="none" xmlns="http://www.w3.org/2000/svg">
<path d="M19.92 72.3331C19.2 68.2051 16.272 63.0211 10.704 58.8451C7.968 56.7811 5.184 55.4371 2.448 54.8611V52.8451C7.872 51.5491 13.2 47.9011 16.608 42.9571C18.336 40.4611 19.44 38.0131 19.92 35.4691H21.936C22.752 40.3171 26.496 45.6931 31.584 49.2931C34.08 51.0691 36.672 52.2691 39.312 52.8451V54.8611C33.984 55.9651 27.792 60.7171 24.72 65.5651C23.184 68.0131 22.272 70.2691 21.936 72.3331H19.92Z" fill="white"/>
<path d="M43.92 96.016C43.2 91.888 40.272 86.704 34.704 82.528C31.968 80.464 29.184 79.12 26.448 78.544V76.528C31.872 75.232 37.2 71.584 40.608 66.64C42.336 64.144 43.44 61.696 43.92 59.152H45.936C46.752 64 50.496 69.376 55.584 72.976C58.08 74.752 60.672 75.952 63.312 76.528V78.544C57.984 79.648 51.792 84.4 48.72 89.248C47.184 91.696 46.272 93.952 45.936 96.016H43.92Z" fill="white"/>
<path d="M43.92 48.016C43.2 43.888 40.272 38.704 34.704 34.528C31.968 32.464 29.184 31.12 26.448 30.544V28.528C31.872 27.232 37.2 23.584 40.608 18.64C42.336 16.144 43.44 13.696 43.92 11.152H45.936C46.752 16 50.496 21.376 55.584 24.976C58.08 26.752 60.672 27.952 63.312 28.528V30.544C57.984 31.648 51.792 36.4 48.72 41.248C47.184 43.696 46.272 45.952 45.936 48.016H43.92Z" fill="white"/>
</svg>
