<svg width="180" height="97" viewBox="0 0 180 97" fill="none" xmlns="http://www.w3.org/2000/svg">
<path d="M19.92 72.3331C19.2 68.2051 16.272 63.0211 10.704 58.8451C7.968 56.7811 5.184 55.4371 2.448 54.8611V52.8451C7.872 51.5491 13.2 47.9011 16.608 42.9571C18.336 40.4611 19.44 38.0131 19.92 35.4691H21.936C22.752 40.3171 26.496 45.6931 31.584 49.2931C34.08 51.0691 36.672 52.2691 39.312 52.8451V54.8611C33.984 55.9651 27.792 60.7171 24.72 65.5651C23.184 68.0131 22.272 70.2691 21.936 72.3331H19.92Z" fill="white"/>
<path d="M43.92 96.016C43.2 91.888 40.272 86.704 34.704 82.528C31.968 80.464 29.184 79.12 26.448 78.544V76.528C31.872 75.232 37.2 71.584 40.608 66.64C42.336 64.144 43.44 61.696 43.92 59.152H45.936C46.752 64 50.496 69.376 55.584 72.976C58.08 74.752 60.672 75.952 63.312 76.528V78.544C57.984 79.648 51.792 84.4 48.72 89.248C47.184 91.696 46.272 93.952 45.936 96.016H43.92Z" fill="white"/>
<path d="M43.92 48.016C43.2 43.888 40.272 38.704 34.704 34.528C31.968 32.464 29.184 31.12 26.448 30.544V28.528C31.872 27.232 37.2 23.584 40.608 18.64C42.336 16.144 43.44 13.696 43.92 11.152H45.936C46.752 16 50.496 21.376 55.584 24.976C58.08 26.752 60.672 27.952 63.312 28.528V30.544C57.984 31.648 51.792 36.4 48.72 41.248C47.184 43.696 46.272 45.952 45.936 48.016H43.92Z" fill="white"/>
<path d="M80.4844 74.5625V68.1172L84.0469 68.1641C84.6719 68.1641 85.2734 68.0625 85.8516 67.8594C86.4297 67.6562 86.9609 67.375 87.4453 67.0156C87.9453 66.6562 88.3828 66.2266 88.7578 65.7266C89.1328 65.2422 89.4375 64.7109 89.6719 64.1328C88.9688 64.4297 88.25 64.7266 87.5156 65.0234C86.7969 65.3203 86.0703 65.4688 85.3359 65.4688C83.7891 65.4688 82.3359 65.1953 80.9766 64.6484C79.6172 64.1016 78.4219 63.3281 77.3906 62.3281C76.375 61.3125 75.5703 60.0859 74.9766 58.6484C74.3984 57.1953 74.1094 55.5703 74.1094 53.7734V39.8984H80.4844V53.7734C80.4844 54.6641 80.6094 55.4453 80.8594 56.1172C81.125 56.7734 81.4766 57.3281 81.9141 57.7812C82.3516 58.2188 82.8594 58.5469 83.4375 58.7656C84.0312 58.9844 84.6641 59.0938 85.3359 59.0938C85.9922 59.0938 86.6094 58.9453 87.1875 58.6484C87.7812 58.3359 88.2969 57.9297 88.7344 57.4297C89.1719 56.9297 89.5156 56.3672 89.7656 55.7422C90.0156 55.1016 90.1406 54.4453 90.1406 53.7734V39.8984H96.5859V61.8359C96.5703 63.6016 96.2266 65.2578 95.5547 66.8047C94.8828 68.3516 93.9609 69.7031 92.7891 70.8594C91.6328 72.0156 90.2812 72.9297 88.7344 73.6016C87.1875 74.2734 85.5312 74.6094 83.7656 74.6094L80.4844 74.5625ZM125.789 65H124.242L121.758 61.5547C121.148 62.1016 120.5 62.6172 119.812 63.1016C119.141 63.5703 118.43 63.9844 117.68 64.3438C116.93 64.6875 116.156 64.9609 115.359 65.1641C114.578 65.3672 113.781 65.4688 112.969 65.4688C111.203 65.4688 109.539 65.1719 107.977 64.5781C106.43 63.9844 105.07 63.125 103.898 62C102.742 60.8594 101.828 59.4688 101.156 57.8281C100.484 56.1875 100.148 54.3203 100.148 52.2266C100.148 50.2734 100.484 48.4844 101.156 46.8594C101.828 45.2188 102.742 43.8125 103.898 42.6406C105.07 41.4688 106.43 40.5625 107.977 39.9219C109.539 39.2656 111.203 38.9375 112.969 38.9375C113.781 38.9375 114.586 39.0391 115.383 39.2422C116.18 39.4453 116.953 39.7266 117.703 40.0859C118.453 40.4453 119.164 40.8672 119.836 41.3516C120.523 41.8359 121.164 42.3594 121.758 42.9219L124.242 39.9453H125.789V65ZM119.344 52.2266C119.344 51.3516 119.172 50.5078 118.828 49.6953C118.5 48.8672 118.047 48.1406 117.469 47.5156C116.891 46.875 116.211 46.3672 115.43 45.9922C114.664 45.6016 113.844 45.4062 112.969 45.4062C112.094 45.4062 111.266 45.5547 110.484 45.8516C109.719 46.1484 109.047 46.5859 108.469 47.1641C107.906 47.7422 107.461 48.4609 107.133 49.3203C106.805 50.1641 106.641 51.1328 106.641 52.2266C106.641 53.3203 106.805 54.2969 107.133 55.1562C107.461 56 107.906 56.7109 108.469 57.2891C109.047 57.8672 109.719 58.3047 110.484 58.6016C111.266 58.8984 112.094 59.0469 112.969 59.0469C113.844 59.0469 114.664 58.8594 115.43 58.4844C116.211 58.0938 116.891 57.5859 117.469 56.9609C118.047 56.3203 118.5 55.5938 118.828 54.7812C119.172 53.9531 119.344 53.1016 119.344 52.2266ZM152.625 44.8906L147.938 49.6016C147.703 48.9453 147.383 48.3594 146.977 47.8438C146.57 47.3125 146.109 46.8672 145.594 46.5078C145.094 46.1484 144.547 45.875 143.953 45.6875C143.359 45.5 142.75 45.4062 142.125 45.4062C141.25 45.4062 140.422 45.5859 139.641 45.9453C138.875 46.3047 138.203 46.8125 137.625 47.4688C137.062 48.1094 136.617 48.875 136.289 49.7656C135.961 50.6562 135.797 51.6406 135.797 52.7188C135.797 53.5938 135.961 54.4141 136.289 55.1797C136.617 55.9453 137.062 56.6172 137.625 57.1953C138.203 57.7734 138.875 58.2266 139.641 58.5547C140.422 58.8828 141.25 59.0469 142.125 59.0469C142.75 59.0469 143.352 58.9609 143.93 58.7891C144.508 58.6172 145.047 58.375 145.547 58.0625C146.062 57.7344 146.516 57.3438 146.906 56.8906C147.312 56.4219 147.641 55.9062 147.891 55.3438L152.578 60.0547C151.984 60.8984 151.297 61.6562 150.516 62.3281C149.75 63 148.914 63.5703 148.008 64.0391C147.117 64.5078 146.172 64.8594 145.172 65.0938C144.188 65.3438 143.172 65.4688 142.125 65.4688C140.359 65.4688 138.695 65.1406 137.133 64.4844C135.586 63.8125 134.227 62.8984 133.055 61.7422C131.898 60.5859 130.984 59.2344 130.312 57.6875C129.641 56.1406 129.305 54.4844 129.305 52.7188C129.305 50.7969 129.641 49 130.312 47.3281C130.984 45.6562 131.898 44.2031 133.055 42.9688C134.227 41.7188 135.586 40.7344 137.133 40.0156C138.695 39.2969 140.359 38.9375 142.125 38.9375C143.172 38.9375 144.195 39.0703 145.195 39.3359C146.211 39.6016 147.172 39.9922 148.078 40.5078C149 41.0078 149.844 41.625 150.609 42.3594C151.391 43.0938 152.062 43.9375 152.625 44.8906ZM162.211 65H155.766V29.9141H162.211V52.0391L171.75 39.9453H179.109L170.789 50.3984L179.109 65H171.75L166.664 55.8828L162.211 61.7891V65Z" fill="white"/>
</svg>
